HIERARCHY
ROOT Hips
{
	OFFSET 0.000000 71.427986 0.000000
	CHANNELS 6 Xposition Yposition Zposition Xrotation Yrotation Zrotation
	JOINT Pelvis
	{
		OFFSET 0.000000 0.000000 0.000000
		CHANNELS 3 Xrotation Yrotation Zrotation
		JOINT LeftUpLeg
		{
			OFFSET 6.797100 -2.508499 -1.318700
			CHANNELS 3 Xrotation Yrotation Zrotation
			JOINT LeftLeg
			{
				OFFSET 0.069008 -29.241863 0.690200
				CHANNELS 3 Xrotation Yrotation Zrotation
				JOINT LeftFoot
				{
					OFFSET -0.069008 -29.568123 -0.266800
					CHANNELS 3 Xrotation Yrotation Zrotation
					JOINT LeftToeBase
					{
						OFFSET 3.145500 -8.631000 16.059900
						CHANNELS 3 Xrotation Yrotation Zrotation
						End Site
						{
							OFFSET 0.000000 18.501587 0.000000
						}
					}
				}
			}
			JOINT Left_ShortSleeve
			{
				OFFSET 0.265923 -10.480953 1.153800
				CHANNELS 3 Xrotation Yrotation Zrotation
				End Site
				{
					OFFSET 1.725763 19.823879 0.000000
				}
			}
		}
		JOINT RightUpLeg
		{
			OFFSET -6.797100 -2.508499 -1.318700
			CHANNELS 3 Xrotation Yrotation Zrotation
			JOINT RightLeg
			{
				OFFSET -0.082453 -29.241932 0.688000
				CHANNELS 3 Xrotation Yrotation Zrotation
				JOINT RightFoot
				{
					OFFSET 0.082453 -29.568058 -0.264600
					CHANNELS 3 Xrotation Yrotation Zrotation
					JOINT RightToeBase
					{
						OFFSET -3.115300 -8.682800 16.113400
						CHANNELS 3 Xrotation Yrotation Zrotation
						End Site
						{
							OFFSET 0.000000 18.567114 0.000000
						}
					}
				}
			}
			JOINT Right_ShortSleeve
			{
				OFFSET -0.265923 -10.480953 1.153800
				CHANNELS 3 Xrotation Yrotation Zrotation
				End Site
				{
					OFFSET -1.725766 19.823910 0.000000
				}
			}
		}
	}
	JOINT Spine
	{
		OFFSET 0.000000 13.368103 0.470500
		CHANNELS 3 Xrotation Yrotation Zrotation
		JOINT Spine1
		{
			OFFSET 0.147000 13.837402 0.538800
			CHANNELS 3 Xrotation Yrotation Zrotation
			JOINT Spine2
			{
				OFFSET 0.168000 16.242897 -1.435500
				CHANNELS 3 Xrotation Yrotation Zrotation
				JOINT Neck
				{
					OFFSET 0.217200 18.631500 -1.679100
					CHANNELS 3 Xrotation Yrotation Zrotation
					JOINT Head
					{
						OFFSET 0.000000 6.599396 1.385900
						CHANNELS 3 Xrotation Yrotation Zrotation
						JOINT Hat
						{
							OFFSET -0.532200 27.220596 -10.096100
							CHANNELS 3 Xrotation Yrotation Zrotation
							End Site
							{
								OFFSET 0.000000 22.029861 0.000000
							}
						}
						JOINT HairD
						{
							OFFSET -10.777400 17.437393 -1.325900
							CHANNELS 3 Xrotation Yrotation Zrotation
							JOINT HairD1
							{
								OFFSET -3.290299 -11.051193 1.062200
								CHANNELS 3 Xrotation Yrotation Zrotation
								End Site
								{
									OFFSET 0.000000 11.579437 0.000000
								}
							}
						}
						JOINT HairB
						{
							OFFSET -10.777400 17.437393 1.467900
							CHANNELS 3 Xrotation Yrotation Zrotation
							JOINT HairB1
							{
								OFFSET -1.561200 -12.956299 3.590200
								CHANNELS 3 Xrotation Yrotation Zrotation
								End Site
								{
									OFFSET 0.000000 13.534866 0.000000
								}
							}
						}
						JOINT HairA
						{
							OFFSET 9.713100 17.437393 1.467900
							CHANNELS 3 Xrotation Yrotation Zrotation
							JOINT HairA1
							{
								OFFSET 1.561200 -12.956299 3.590200
								CHANNELS 3 Xrotation Yrotation Zrotation
								End Site
								{
									OFFSET 0.000000 13.534866 0.000000
								}
							}
						}
						JOINT HairC
						{
							OFFSET 9.713100 17.437393 -1.325900
							CHANNELS 3 Xrotation Yrotation Zrotation
							JOINT HairC1
							{
								OFFSET 3.290300 -11.051193 1.062200
								CHANNELS 3 Xrotation Yrotation Zrotation
								End Site
								{
									OFFSET 0.000000 11.579437 0.000000
								}
							}
						}
					}
				}
				JOINT LeftShoulder
				{
					OFFSET 5.101800 15.108002 -2.763700
					CHANNELS 3 Xrotation Yrotation Zrotation
					JOINT LeftArm
					{
						OFFSET 9.825497 2.506317 -1.597400
						CHANNELS 3 Xrotation Yrotation Zrotation
						JOINT LeftForeArm
						{
							OFFSET 21.966244 0.000000 0.000000
							CHANNELS 3 Xrotation Yrotation Zrotation
							JOINT LeftHand
							{
								OFFSET 33.879036 0.000000 0.000000
								CHANNELS 3 Xrotation Yrotation Zrotation
								JOINT LeftHandThumb1
								{
									OFFSET 6.715286 -2.359680 3.363841
									CHANNELS 3 Xrotation Yrotation Zrotation
									JOINT LeftHandThumb2
									{
										OFFSET 2.507072 -1.447464 1.447461
										CHANNELS 3 Xrotation Yrotation Zrotation
										JOINT LeftHandThumb3
										{
											OFFSET 2.898338 -1.673355 1.673357
											CHANNELS 3 Xrotation Yrotation Zrotation
											End Site
											{
												OFFSET -0.295959 3.727692 -0.131651
											}
										}
									}
								}
								JOINT LeftHandIndex1
								{
									OFFSET 14.190811 -0.254547 3.840278
									CHANNELS 3 Xrotation Yrotation Zrotation
									JOINT LeftHandIndex2
									{
										OFFSET 3.551727 0.000000 -0.000000
										CHANNELS 3 Xrotation Yrotation Zrotation
										JOINT LeftHandIndex3
										{
											OFFSET 2.894196 0.000000 0.000000
											CHANNELS 3 Xrotation Yrotation Zrotation
											End Site
											{
												OFFSET -1.000603 2.690872 0.366626
											}
										}
									}
								}
								JOINT LeftHandMiddle1
								{
									OFFSET 13.776489 0.000000 0.000000
									CHANNELS 3 Xrotation Yrotation Zrotation
									JOINT LeftHandMiddle2
									{
										OFFSET 3.438232 0.000000 0.000000
										CHANNELS 3 Xrotation Yrotation Zrotation
										JOINT LeftHandMiddle3
										{
											OFFSET 3.691551 0.000000 0.000000
											CHANNELS 3 Xrotation Yrotation Zrotation
											End Site
											{
												OFFSET -1.082298 3.499527 0.457670
											}
										}
									}
								}
								JOINT LeftHandRing1
								{
									OFFSET 13.966164 -0.268127 -3.067488
									CHANNELS 3 Xrotation Yrotation Zrotation
									JOINT LeftHandRing2
									{
										OFFSET 3.162567 0.000000 0.000000
										CHANNELS 3 Xrotation Yrotation Zrotation
										JOINT LeftHandRing3
										{
											OFFSET 3.324348 0.000000 0.000000
											CHANNELS 3 Xrotation Yrotation Zrotation
											End Site
											{
												OFFSET -0.861900 3.184998 0.405154
											}
										}
									}
								}
								JOINT LeftHandPinky1
								{
									OFFSET 13.131393 -0.168503 -5.746925
									CHANNELS 3 Xrotation Yrotation Zrotation
									JOINT LeftHandPinky2
									{
										OFFSET 2.849182 0.000000 0.000000
										CHANNELS 3 Xrotation Yrotation Zrotation
										JOINT LeftHandPinky3
										{
											OFFSET 2.805038 0.000000 0.000000
											CHANNELS 3 Xrotation Yrotation Zrotation
											End Site
											{
												OFFSET -0.882500 2.642609 0.325652
											}
										}
									}
								}
							}
							JOINT Left_Sleeve
							{
								OFFSET 6.592125 -0.646545 0.805568
								CHANNELS 3 Xrotation Yrotation Zrotation
								End Site
								{
									OFFSET -0.000179 20.275787 -0.000000
								}
							}
						}
					}
				}
				JOINT RightShoulder
				{
					OFFSET -5.731700 15.108002 -2.763700
					CHANNELS 3 Xrotation Yrotation Zrotation
					JOINT RightArm
					{
						OFFSET -9.825497 2.506317 -1.597400
						CHANNELS 3 Xrotation Yrotation Zrotation
						JOINT RightForeArm
						{
							OFFSET -21.966242 0.000000 0.000000
							CHANNELS 3 Xrotation Yrotation Zrotation
							JOINT RightHand
							{
								OFFSET -33.879032 0.000000 0.000000
								CHANNELS 3 Xrotation Yrotation Zrotation
								JOINT RightHandThumb1
								{
									OFFSET -6.715286 -2.359680 3.363841
									CHANNELS 3 Xrotation Yrotation Zrotation
									JOINT RightHandThumb2
									{
										OFFSET -2.507072 -1.447464 1.447461
										CHANNELS 3 Xrotation Yrotation Zrotation
										JOINT RightHandThumb3
										{
											OFFSET -2.898338 -1.673355 1.673357
											CHANNELS 3 Xrotation Yrotation Zrotation
											End Site
											{
												OFFSET 0.295959 3.727692 -0.131651
											}
										}
									}
								}
								JOINT RightHandIndex1
								{
									OFFSET -14.190811 -0.254547 3.840278
									CHANNELS 3 Xrotation Yrotation Zrotation
									JOINT RightHandIndex2
									{
										OFFSET -3.551727 0.000000 -0.000000
										CHANNELS 3 Xrotation Yrotation Zrotation
										JOINT RightHandIndex3
										{
											OFFSET -2.894196 0.000000 0.000000
											CHANNELS 3 Xrotation Yrotation Zrotation
											End Site
											{
												OFFSET 1.000603 2.690872 0.366626
											}
										}
									}
								}
								JOINT RightHandMiddle1
								{
									OFFSET -13.776489 0.000000 0.000000
									CHANNELS 3 Xrotation Yrotation Zrotation
									JOINT RightHandMiddle2
									{
										OFFSET -3.438232 0.000000 0.000000
										CHANNELS 3 Xrotation Yrotation Zrotation
										JOINT RightHandMiddle3
										{
											OFFSET -3.691551 0.000000 0.000000
											CHANNELS 3 Xrotation Yrotation Zrotation
											End Site
											{
												OFFSET 1.082298 3.499527 0.457670
											}
										}
									}
								}
								JOINT RightHandRing1
								{
									OFFSET -13.966164 -0.268127 -3.067488
									CHANNELS 3 Xrotation Yrotation Zrotation
									JOINT RightHandRing2
									{
										OFFSET -3.162567 0.000000 0.000000
										CHANNELS 3 Xrotation Yrotation Zrotation
										JOINT RightHandRing3
										{
											OFFSET -3.324348 0.000000 0.000000
											CHANNELS 3 Xrotation Yrotation Zrotation
											End Site
											{
												OFFSET 0.861900 3.184998 0.405154
											}
										}
									}
								}
								JOINT RightHandPinky1
								{
									OFFSET -13.131393 -0.168503 -5.746925
									CHANNELS 3 Xrotation Yrotation Zrotation
									JOINT RightHandPinky2
									{
										OFFSET -2.849182 0.000000 0.000000
										CHANNELS 3 Xrotation Yrotation Zrotation
										JOINT RightHandPinky3
										{
											OFFSET -2.805038 0.000000 0.000000
											CHANNELS 3 Xrotation Yrotation Zrotation
											End Site
											{
												OFFSET 0.882500 2.642609 0.325652
											}
										}
									}
								}
							}
							JOINT Right_Sleeve
							{
								OFFSET -6.592125 -0.646545 0.805568
								CHANNELS 3 Xrotation Yrotation Zrotation
								End Site
								{
									OFFSET 0.000179 20.275787 -0.000000
								}
							}
						}
					}
				}
				JOINT Bind_Right_JacketString
				{
					OFFSET -3.534800 11.969597 7.200700
					CHANNELS 3 Xrotation Yrotation Zrotation
					JOINT Bind_Right_JacketString1
					{
						OFFSET -0.319900 -6.102600 2.794100
						CHANNELS 3 Xrotation Yrotation Zrotation
						End Site
						{
							OFFSET 0.000000 6.719452 0.000000
						}
					}
				}
				JOINT Bind_Left_JacketString
				{
					OFFSET 2.904800 11.969597 7.200700
					CHANNELS 3 Xrotation Yrotation Zrotation
					JOINT Bind_Left_JacketString1
					{
						OFFSET 0.364800 -5.904503 3.186800
						CHANNELS 3 Xrotation Yrotation Zrotation
						End Site
						{
							OFFSET 0.000000 6.719513 0.000000
						}
					}
				}
				JOINT HairE
				{
					OFFSET 5.915200 17.612701 -11.592200
					CHANNELS 3 Xrotation Yrotation Zrotation
					JOINT HairE1
					{
						OFFSET 0.289200 -7.171898 -1.284500
						CHANNELS 3 Xrotation Yrotation Zrotation
						End Site
						{
							OFFSET 0.000000 7.291756 0.000000
						}
					}
				}
				JOINT HairF
				{
					OFFSET -0.864800 17.612701 -11.592200
					CHANNELS 3 Xrotation Yrotation Zrotation
					JOINT HairF1
					{
						OFFSET 0.000000 -14.087097 -2.127501
						CHANNELS 3 Xrotation Yrotation Zrotation
						End Site
						{
							OFFSET 0.000000 14.246841 0.000000
						}
					}
				}
				JOINT HairG
				{
					OFFSET -8.087700 17.612701 -11.592200
					CHANNELS 3 Xrotation Yrotation Zrotation
					JOINT HairG1
					{
						OFFSET -0.293600 -6.081398 -0.910100
						CHANNELS 3 Xrotation Yrotation Zrotation
						End Site
						{
							OFFSET 0.000000 6.156120 0.000000
						}
					}
				}
			}
		}
	}
	JOINT Pouch
	{
		OFFSET 0.000000 4.394501 10.847300
		CHANNELS 3 Xrotation Yrotation Zrotation
		End Site
		{
			OFFSET 0.000000 21.880577 0.000000
		}
	}
	JOINT Bag
	{
		OFFSET -13.229000 4.813004 -0.593300
		CHANNELS 3 Xrotation Yrotation Zrotation
		End Site
		{
			OFFSET 0.000000 21.880577 0.000000
		}
	}
	JOINT OccupyGuyFacialAnim_Joint
	{
		OFFSET 1.000000 -70.206398 -1.655000
		CHANNELS 3 Xrotation Yrotation Zrotation
		End Site
		{
			OFFSET 0.000000 21.880577 0.000000
		}
	}
}
MOTION
Frames: 4
Frame Time: 0.033333
0.100438 26.697975 1.676865 20.736569 5.042457 2.700204 0.000003 -0.000000 -0.000000 -137.206793 -6.862970 26.896045 121.667772 -1.587860 0.033716 -1.765703 -0.063622 2.329508 -0.000000 -0.000000 0.000000 0.000000 -0.000000 0.000001 -142.135007 8.644148 -20.515440 133.388035 -6.105388 -0.253448 -11.206175 -4.149734 -8.002957 0.000000 0.000000 0.000000 0.000001 0.000001 -0.000001 40.611188 0.720951 0.519518 6.230300 -0.269638 1.143245 6.282603 -0.412323 1.211978 -4.247955 0.594377 -0.152542 -43.072870 -8.872608 -3.269811 0.000001 0.000000 -0.000000 0.000001 0.000000 -0.000000 0.000001 0.000000 -0.000000 0.000001 0.000000 -0.000000 0.000001 -0.000000 0.000000 0.000001 0.000000 -0.000000 0.000001 -0.000000 0.000000 0.000001 0.000000 -0.000000 0.000001 0.000000 -0.000000 5.442465 -22.815948 25.001202 -65.402019 -14.743047 -26.900994 -0.000453 -87.829730 -0.000594 -34.212503 -9.913200 23.817483 54.347703 -40.293536 24.680491 32.765152 45.122320 -25.273501 -0.000000 0.000001 -0.000002 -2.512449 -5.285748 -102.138765 6.047836 5.847746 -91.930836 0.000003 -0.000000 -0.000002 -1.953468 8.407131 -91.339266 6.132107 5.844321 -92.757944 -0.000000 -0.000000 0.000004 -2.822066 8.783731 -93.566591 6.491173 5.816071 -96.291488 -0.000003 -0.000001 0.000003 -0.887051 8.756501 -94.404054 4.838828 5.763150 -80.020953 -0.000001 -0.000001 0.000001 0.000003 0.000000 -0.000000 1.681442 3.417209 -21.456122 -95.943647 34.891424 44.440595 -0.000026 57.508396 0.000029 -35.292636 4.596484 -4.015030 19.590354 50.941754 -1.807861 25.511639 -39.777280 22.645004 -0.000002 -0.000001 0.000001 -0.429026 3.387897 32.595381 0.803419 -2.616838 34.128618 -0.000001 -0.000000 -0.000002 1.057051 -5.180826 40.713460 1.276130 -3.204640 43.417563 -0.000001 -0.000001 0.000001 -0.398116 -3.578421 42.056050 1.492907 -3.418901 47.169191 0.000001 0.000000 -0.000002 1.195497 -13.730288 44.381992 0.641458 -2.360556 30.400130 -0.000001 0.000003 0.000001 0.000000 0.000001 -0.000001 -0.000001 0.000000 0.000000 -0.000001 -0.000000 -0.000000 -0.000001 0.000000 0.000000 -0.000001 0.000000 0.000000 -0.000001 0.000000 0.000000 -0.000001 -0.000000 -0.000000 -0.000001 0.000000 0.000000 -0.000001 0.000000 0.000000 -0.000001 0.000000 0.000000 -0.000001 -0.000000 -0.000000 0.000003 -0.000000 -0.000000 0.000003 -0.000000 -0.000000 0.000003 -0.000000 -0.000000 
0.104362 26.744751 1.675276 20.734682 4.985167 2.704110 0.000002 -0.000000 0.000000 -137.109600 -6.869380 26.905389 121.618977 -1.556140 0.033728 -1.794550 -0.064329 2.308041 0.000000 -0.000002 0.000000 0.000001 0.000000 -0.000000 -142.051337 8.518966 -20.538710 133.318599 -6.040904 -0.253457 -11.275095 -4.198555 -8.178263 -0.000000 -0.000001 0.000000 -0.000001 0.000000 0.000001 40.611205 0.757515 0.500548 6.230307 -0.314371 1.143243 6.282607 -0.462646 1.227780 -4.224372 0.655533 -0.120443 -43.054709 -8.728487 -3.245187 -0.000000 0.000001 -0.000000 -0.000000 0.000001 -0.000000 -0.000000 0.000001 -0.000000 -0.000000 0.000001 -0.000000 -0.000000 -0.000000 -0.000000 -0.000000 0.000001 -0.000000 -0.000000 -0.000000 -0.000000 -0.000000 0.000001 -0.000000 -0.000000 0.000001 -0.000000 5.282231 -22.399038 25.289586 -65.850660 -14.114608 -26.864473 0.005145 -89.312120 0.005547 -34.419632 -9.294039 24.065632 53.129340 -42.077309 23.993287 32.586628 45.040593 -25.216548 0.000002 0.000002 0.000001 -1.876681 -5.202901 -97.833103 5.785157 5.850663 -89.353791 0.000003 0.000001 0.000000 -1.701547 7.942665 -87.885970 5.932532 5.850486 -90.799217 -0.000001 -0.000001 0.000001 -2.813265 8.231292 -90.030984 6.293096 5.834391 -94.340219 -0.000001 -0.000001 0.000001 -0.553210 8.855373 -91.008091 4.642573 5.725328 -78.059999 0.000000 0.000000 -0.000001 -0.000002 0.000001 -0.000002 1.766599 2.997714 -21.508023 -96.237324 34.998921 45.688163 0.000018 56.626984 -0.000030 -35.287544 4.740513 -4.012305 20.101289 50.418465 -2.261325 25.706872 -39.950569 22.720409 -0.000003 0.000000 0.000002 -0.292353 3.355129 34.546086 0.877657 -2.723126 35.723146 -0.000001 0.000001 -0.000001 1.008216 -5.137769 42.321385 1.355901 -3.286748 44.826313 0.000001 -0.000001 0.000003 -0.454657 -3.624175 43.701651 1.577107 -3.494922 48.565367 -0.000001 -0.000000 -0.000002 1.354691 -13.423628 45.996277 0.701400 -2.459855 31.826257 0.000000 0.000002 0.000001 0.000001 0.000001 0.000000 0.000001 -0.000000 -0.000000 -0.000001 0.000000 -0.000000 0.000001 -0.000000 -0.000000 0.000001 -0.000000 -0.000000 0.000001 -0.000000 -0.000000 -0.000001 0.000000 -0.000000 0.000001 -0.000000 -0.000000 0.000001 -0.000000 -0.000000 0.000001 -0.000000 -0.000000 -0.000001 0.000000 -0.000000 0.000002 -0.000000 0.000000 0.000002 -0.000000 0.000000 0.000002 -0.000000 0.000000 
0.108162 26.796982 1.673346 20.741746 4.923588 2.707643 -0.000001 0.000000 0.000001 -137.004292 -6.875113 26.918257 121.571029 -1.525671 0.033761 -1.847456 -0.065314 2.289181 0.000000 -0.000001 0.000000 0.000001 -0.000000 -0.000000 -141.957081 8.383635 -20.563729 133.246336 -5.973226 -0.253490 -11.368497 -4.248723 -8.360341 -0.000000 0.000002 0.000000 0.000003 0.000000 -0.000000 40.611161 0.858481 0.484467 6.230284 -0.356402 1.143244 6.282623 -0.509912 1.242622 -4.198204 0.720257 -0.097220 -43.012744 -8.550383 -3.187832 -0.000003 0.000000 0.000000 -0.000003 0.000000 0.000000 -0.000003 0.000000 0.000000 -0.000003 0.000000 0.000000 -0.000001 -0.000000 0.000000 -0.000003 0.000000 0.000000 -0.000001 -0.000000 0.000000 -0.000003 0.000000 0.000000 -0.000003 0.000000 0.000000 5.121773 -21.987673 25.584219 -66.332256 -13.571915 -26.823036 0.000026 -90.815985 0.000084 -34.615733 -8.676715 24.331000 51.920912 -43.791382 23.222358 32.409408 44.958798 -25.159900 0.000002 -0.000001 0.000002 -1.311432 -5.064935 -93.623233 5.527547 5.842130 -86.824955 0.000000 0.000005 -0.000003 -1.414732 7.542123 -84.522054 5.736911 5.849937 -88.880261 -0.000000 -0.000001 0.000001 -2.767003 7.717866 -86.588337 6.098587 5.845844 -92.428872 -0.000001 0.000001 0.000000 -0.269770 9.028003 -87.686447 4.451922 5.681885 -76.141801 -0.000001 -0.000001 0.000003 0.000002 0.000001 0.000001 1.820896 2.581241 -21.369565 -96.475541 35.230771 46.925203 0.000034 55.766046 -0.000035 -35.282251 4.884531 -4.009589 20.104967 50.415457 -2.264732 25.708171 -39.951860 22.720938 0.000003 0.000000 0.000001 -0.291637 3.354879 34.559589 0.878203 -2.723865 35.734515 0.000002 0.000001 0.000000 1.007758 -5.137361 42.331187 1.356432 -3.287292 44.835776 0.000001 -0.000001 0.000001 -0.455134 -3.624360 43.711688 1.577700 -3.495421 48.574813 0.000000 -0.000003 -0.000002 1.355533 -13.421672 46.006109 0.701820 -2.460502 31.835754 -0.000001 0.000003 0.000001 0.000001 0.000002 0.000002 -0.000000 0.000000 0.000000 -0.000000 0.000000 0.000000 -0.000000 0.000000 0.000000 -0.000000 0.000000 0.000000 -0.000000 0.000000 0.000000 -0.000000 0.000000 0.000000 -0.000000 0.000000 0.000000 -0.000000 0.000000 0.000000 -0.000000 0.000000 0.000000 -0.000000 0.000000 0.000000 -0.000001 0.000000 0.000001 -0.000001 0.000000 0.000001 -0.000001 0.000000 0.000001 
0.111939 26.852638 1.671284 20.748803 4.861435 2.711251 -0.000001 -0.000000 -0.000001 -136.892864 -6.874909 26.936017 121.519147 -1.497504 0.033793 -1.904535 -0.066209 2.274269 -0.000000 -0.000000 -0.000000 -0.000001 0.000002 -0.000003 -141.854013 8.245602 -20.589487 133.168991 -5.904691 -0.253539 -11.465751 -4.298970 -8.541890 0.000000 -0.000001 -0.000000 0.000002 0.000001 -0.000001 40.610993 1.010238 0.469830 6.230286 -0.398229 1.145246 6.282624 -0.556741 1.257329 -4.171698 0.785489 -0.075268 -42.968990 -8.367420 -3.125869 0.000000 -0.000000 0.000000 0.000000 -0.000000 0.000000 0.000000 -0.000000 0.000000 0.000000 -0.000000 0.000000 0.000000 0.000000 -0.000000 0.000000 -0.000000 0.000000 0.000000 0.000000 -0.000000 0.000000 -0.000000 0.000000 0.000000 -0.000000 0.000000 4.957992 -21.578639 25.877912 -66.841085 -13.170013 -26.817725 -0.011850 -92.305588 -0.011949 -34.771110 -8.080307 24.629870 50.704456 -45.488715 22.370818 32.232656 44.876996 -25.103518 0.000003 0.000001 -0.000002 -0.809690 -4.887744 -89.428159 5.271203 5.822340 -84.303106 0.000002 -0.000001 -0.000000 -1.108434 7.195667 -81.167646 5.542016 5.842920 -86.967037 0.000001 0.000001 0.000001 -2.691699 7.232790 -83.158837 5.904398 5.850822 -90.523168 -0.000001 0.000001 -0.000001 -0.033126 9.254775 -84.364591 4.263459 5.632271 -74.229997 0.000000 -0.000002 0.000002 0.000000 0.000001 -0.000001 1.860681 2.167247 -21.120318 -96.687400 35.539462 48.160214 0.000029 54.941188 -0.000037 -35.276797 5.028554 -4.006904 20.536393 49.965057 -2.643277 25.876213 -40.100406 22.786227 0.000002 0.000000 0.000002 -0.177772 3.339440 36.233460 0.944285 -2.813301 37.102083 -0.000001 0.000000 0.000000 0.961695 -5.104560 43.710059 1.426484 -3.356127 46.044132 -0.000001 0.000000 0.000001 -0.504849 -3.667142 45.122979 1.651353 -3.558957 49.772371 0.000000 0.000000 -0.000003 1.475988 -13.158700 47.386896 0.755220 -2.544447 33.059007 -0.000000 -0.000000 0.000001 -0.000003 -0.000002 -0.000002 -0.000000 0.000000 -0.000000 -0.000000 0.000000 -0.000000 -0.000000 0.000000 0.000000 -0.000000 0.000000 0.000000 -0.000000 0.000000 -0.000000 -0.000000 0.000000 -0.000000 -0.000000 0.000000 0.000000 -0.000000 0.000000 0.000000 -0.000000 0.000000 -0.000000 -0.000000 0.000000 -0.000000 -0.000001 -0.000000 -0.000001 -0.000001 -0.000000 -0.000001 -0.000001 -0.000000 -0.000001 
